<svg xmlns="http://www.w3.org/2000/svg" xmlns:xlink="http://www.w3.org/1999/xlink" width="217" height="217" version="1.1" viewBox="0 0 217 217"><title>flaticon1527677773-svg</title><desc>Created with Sketch.</desc><g id="Page-1" fill="none" fill-rule="evenodd" stroke="none" stroke-width="1"><g id="Desktop-HD" fill="#000" fill-rule="nonzero" transform="translate(-73.000000, -172.000000)"><g id="flaticon1527677773-svg" transform="translate(73.000000, 172.000000)"><path id="Shape" d="M217,14 L126,14 L126,0 L91,0 L91,14 L0,14 L0,154 L37.394,154 L19.894,217 L48.16,217 L55.937,189 L161.0595,189 L168.8365,217 L197.1025,217 L179.6025,154 L217,154 L217,14 Z M98,7 L119,7 L119,14 L98,14 L98,7 Z M42.84,210 L29.1025,210 L44.66,154 L58.394,154 L42.84,210 Z M57.883,182 L59.829,175 L136.5,175 L136.5,168 L61.7715,168 L65.66,154 L151.34,154 L155.2285,168 L143.5,168 L143.5,175 L157.1745,175 L159.1205,182 L57.883,182 Z M187.8975,210 L174.16,210 L158.6025,154 L172.3365,154 L187.8975,210 Z M210,147 L177.66,147 L149.394,147 L67.6025,147 L39.34,147 L7,147 L7,21 L91,21 L126,21 L210,21 L210,147 Z"/><path id="Shape" d="M94.7315805,66.3775148 C94.7315805,68.7394763 94.9594551,71.0770159 95.390664,73.372689 L80.6559398,57.7321073 L15,130.331899 L20.2095646,135 L80.7611127,68.0451922 L130.735772,121.096873 L135.850681,116.327595 L111.029875,89.9796863 L133.158255,67.9579706 L193.790435,135 L199,130.331899 L163.11851,90.6495484 C168.766295,83.8009065 171.858379,75.3055202 171.858379,66.3775148 C171.858379,45.2175487 154.557435,28 133.29498,28 C112.032524,28 94.7315805,45.2175487 94.7315805,66.3775148 Z M133.29498,34.97773 C150.690578,34.97773 164.846851,49.0657667 164.846851,66.3775148 C164.846851,73.3168672 162.550576,79.9317552 158.357683,85.3848512 L133.428199,57.819329 L107.198076,83.9265056 C103.674783,78.7525188 101.743108,72.6539828 101.743108,66.3775148 C101.743108,49.0657667 115.899381,34.97773 133.29498,34.97773 Z"/><rect id="Rectangle-path" width="7" height="7" x="164" y="126"/><rect id="Rectangle-path" width="7" height="7" x="150" y="126"/><rect id="Rectangle-path" width="7" height="7" x="137" y="126"/></g></g></g></svg>