<svg xmlns="http://www.w3.org/2000/svg" xmlns:xlink="http://www.w3.org/1999/xlink" width="183" height="163" version="1.1" viewBox="0 0 183 163"><title>flaticon1527677715-svg</title><desc>Created with Sketch.</desc><g id="Page-1" fill="none" fill-rule="evenodd" stroke="none" stroke-width="1"><g id="Desktop-HD" fill="#000" fill-rule="nonzero" transform="translate(-467.000000, -172.000000)"><g id="flaticon1527677715-svg" transform="translate(467.000000, 172.000000)"><path id="Shape" d="M181.053712,64.4110772 L94.309012,0.918108816 C92.6362807,-0.306036272 90.3637966,-0.306036272 88.6917802,0.918108816 L1.94636521,64.4110772 C-0.172427771,65.9621612 -0.632786301,68.9364122 0.91877921,71.0545476 C2.47034472,73.1726831 5.44587637,73.6321841 7.56431193,72.0818147 L91.5000387,10.6444525 L175.435765,72.0814574 C176.282139,72.7013908 177.265762,72.9997449 178.240807,72.9997449 C179.704804,72.9997449 181.149501,72.326215 182.080941,71.0541903 C183.632864,68.9364122 183.172505,65.9621612 181.053712,64.4110772 Z"/><path id="Shape" d="M157.266406,73 C154.652682,73 152.533167,75.1300167 152.533167,77.7574903 L152.533167,153.484304 L114.667971,153.484304 L114.667971,112.147818 C114.667971,99.03012 104.050118,88.358579 91,88.358579 C77.949882,88.358579 67.3320287,99.0308353 67.3320287,112.147818 L67.3320287,153.484662 L29.4664769,153.484662 L29.4664769,77.7578479 C29.4664769,75.1303743 27.3469624,73.0003576 24.7332385,73.0003576 C22.1195145,73.0003576 20,75.1303743 20,77.7578479 L20,158.24251 C20,160.869983 22.1195145,163 24.7332385,163 L72.0652672,163 C74.5544603,163 76.5914287,161.067035 76.7800039,158.61301 C76.7913896,158.501788 76.7985056,158.380196 76.7985056,158.24251 L76.7985056,112.148176 C76.7985056,104.277199 83.1691464,97.8739172 91,97.8739172 C98.8308536,97.8739172 105.201494,104.277557 105.201494,112.148176 L105.201494,158.24251 C105.201494,158.37948 105.20861,158.498927 105.219996,158.608718 C105.406437,161.064532 107.444116,163 109.934733,163 L157.266762,163 C159.880841,163 162,160.869983 162,158.24251 L162,77.7578479 C161.999644,75.1300167 159.880485,73 157.266406,73 Z"/></g></g></g></svg>