<svg xmlns="http://www.w3.org/2000/svg" xmlns:xlink="http://www.w3.org/1999/xlink" width="24" height="32" class="d-inline-block align-top" version="1.1" viewBox="0 0 238 324"><title>spaceship</title><desc>Created with Sketch.</desc><g id="Page-1" fill="none" fill-rule="evenodd" stroke="none" stroke-width="1"><g id="Desktop-HD" transform="translate(-544.000000, -362.000000)"><g id="spaceship" transform="translate(544.000000, 362.000000)"><rect id="Path" width="108" height="163" x="65" y="103" fill="#FFF"/><polygon id="Triangle" fill="#FFF" points="119 12 178 123 60 123"/><g id="Red" fill="red" transform="translate(13.000000, 225.000000)"><rect id="Rectangle" width="43" height="41" x="0" y="47"/><rect id="Rectangle-2" width="34" height="37" x="9" y="13"/><rect id="Rectangle-3" width="27" height="15" x="20" y="0"/></g><g id="Red" fill="red" transform="translate(201.500000, 269.000000) scale(-1, 1) translate(-201.500000, -269.000000) translate(178.000000, 225.000000)"><rect id="Rectangle" width="43" height="41" x="0" y="47"/><rect id="Rectangle-2" width="34" height="37" x="9" y="13"/><rect id="Rectangle-3" width="27" height="15" x="20" y="0"/></g><rect id="Rectangle-4" width="24" height="97" x="107" y="218" fill="red"/><ellipse id="Oval" cx="118.5" cy="122.5" fill="#0090C4" rx="26.5" ry="23.5"/><path id="Shape" fill="#000" fill-rule="nonzero" d="M117.999308,91 C100.354493,91 86,105.132025 86,122.499659 C86,139.867975 100.354493,154 117.999308,154 C135.644815,154 150,139.867975 150,122.499659 C149.999308,105.132025 135.64343,91 117.999308,91 Z M117.999308,141.807023 C107.184298,141.807023 98.3868065,133.146712 98.3868065,122.500341 C98.3868065,111.854651 107.184298,103.19434 117.999308,103.19434 C128.813626,103.19434 137.611117,111.854651 137.611117,122.500341 C137.611117,133.146712 128.813626,141.807023 117.999308,141.807023 Z"/><path id="Shape" fill="#000" fill-rule="nonzero" d="M237.561793,315.716534 L217.194586,233.505428 C216.799573,231.90798 215.751778,230.535743 214.291554,229.703204 L182.32824,211.475925 C182.27181,111.838971 182.194479,111.097057 182.174973,110.978702 C181.606488,101.209379 141.569443,32.2472212 124.380453,3.04948974 C123.270655,1.16460886 121.205022,0 118.968705,0 C116.730994,0 114.665362,1.16460886 113.555563,3.04948974 C96.3686638,32.2438396 56.3302248,101.205997 55.7826406,110.710207 C55.7443236,111.064594 55.664903,111.836266 55.6084726,211.475925 L23.6451593,229.703204 C22.1856313,230.535743 21.1378366,231.90798 20.7428235,233.505428 L0.173581489,316.532166 C-0.274378634,318.334536 0.155468016,320.237678 1.33841714,321.69513 C2.51927626,323.148523 4.32435352,324 6.23462826,324 L61.8206972,324 C65.2629537,324 68.0545186,321.290019 68.0545186,317.947686 L68.0545186,272.503593 L97.6679571,272.503593 L97.6679571,317.947686 C97.6679571,321.290019 100.460219,324 103.903172,324 L134.031451,324 C137.474404,324 140.265969,321.290019 140.265969,317.947686 L140.265969,272.503593 L169.882891,272.503593 L169.882891,317.947686 C169.882891,321.290019 172.673759,324 176.117409,324 L231.702781,324 C231.723682,323.996618 231.743885,323.996618 231.765482,324 C235.207042,324 238,321.290019 238,317.947686 C238,317.159107 237.843945,316.4084 237.561793,315.716534 Z M55.5861791,311.896048 L14.1467326,311.896048 L32.2455756,238.838823 L55.5868758,225.527655 L55.5861791,311.896048 Z M127.796933,311.896048 L110.136297,311.896048 L110.136297,221.006511 L127.796933,221.006511 L127.796933,311.896048 Z M140.265273,260.398965 L140.265273,214.954197 C140.265273,211.611864 137.473708,208.902559 134.030754,208.902559 L103.902475,208.902559 C100.459522,208.902559 97.6672605,211.611864 97.6672605,214.954197 L97.6672605,260.398965 L68.053822,260.398965 C68.053822,260.384087 68.053822,260.369208 68.053822,260.357034 C68.0726321,211.028883 68.1276692,117.674865 68.2098765,111.777427 C69.7878387,104.451618 97.1670499,55.6530187 118.968008,18.2935569 C140.785687,55.6848053 168.190675,104.531422 169.727533,111.824768 C169.80765,118.14896 169.863384,211.154001 169.882194,260.354329 C169.882194,260.369208 169.882194,260.384087 169.882194,260.398965 L140.265273,260.398965 Z M182.350534,311.896048 L182.350534,225.527655 L205.691137,238.838823 L223.78998,311.896048 L182.350534,311.896048 Z"/></g></g></g></svg>