<?xml version="1.0" encoding="UTF-8"?>
<svg width="148px" height="154px" viewBox="0 0 148 154" version="1.1" xmlns="http://www.w3.org/2000/svg" xmlns:xlink="http://www.w3.org/1999/xlink">
    <!-- Generator: Sketch 50.2 (55047) - http://www.bohemiancoding.com/sketch -->
    <title>flaticon1527677786-svg</title>
    <desc>Created with Sketch.</desc>
    <defs></defs>
    <g id="Page-1" stroke="none" stroke-width="1" fill="none" fill-rule="evenodd">
        <g id="Desktop-HD" transform="translate(-376.000000, -473.000000)" fill="#000000" fill-rule="nonzero">
            <g id="flaticon1527677786-svg" transform="translate(376.000000, 473.000000)">
                <path d="M145.476722,24.1436638 L125.044382,2.79605704 C123.342888,1.01904488 120.958875,0 118.501928,0 L37.6480776,0 C32.6495438,0 28.5829451,4.0752772 28.5829451,9.08447835 L28.5829451,37.5175752 L11.600116,37.5175752 C5.20382963,37.5175752 0,42.7328111 0,49.1427478 L0,71.4549581 C0,77.8648948 5.20382963,83.0798299 11.600116,83.0798299 L28.5829451,83.0798299 L28.5829451,144.915522 C28.5829451,149.924723 32.6495438,154 37.6480776,154 L138.934868,154 C143.933401,154 148,149.924723 148,144.915522 L148,30.4320851 C147.9997,28.0772733 147.103782,25.8436761 145.476722,24.1436638 Z M121.250911,11.8781291 L136.403486,27.7094185 L121.250911,27.7094185 L121.250911,11.8781291 Z M11.600116,74.0497929 C10.1723494,74.0497929 9.01080707,72.8857717 9.01080707,71.4549581 L9.01080707,49.1427478 C9.01080707,47.7119342 10.1723494,46.5476122 11.600116,46.5476122 L68.6837679,46.5476122 C70.1115345,46.5476122 71.2730768,47.7119342 71.2730768,49.1427478 L71.2730768,71.4549581 C71.2730768,72.8857717 70.1115345,74.0497929 68.6837679,74.0497929 L11.600116,74.0497929 Z M138.989193,144.915221 C138.988893,144.945299 138.964581,144.969662 138.934868,144.969662 L37.6480776,144.969662 C37.6180636,144.969662 37.5937522,144.945299 37.5937522,144.915221 L37.5937522,83.0798299 L68.6837679,83.0798299 C75.0800543,83.0798299 80.2838839,77.8648948 80.2838839,71.4549581 L80.2838839,49.1427478 C80.2838839,42.7325103 75.0800543,37.5175752 68.6837679,37.5175752 L37.5937522,37.5175752 L37.5937522,9.08447835 C37.5937522,9.05440028 37.6180636,9.03003705 37.6480776,9.03003705 L112.240704,9.03003705 L112.240704,32.0923944 C112.240704,32.1143513 112.241004,32.1363083 112.241305,32.1582653 C112.241004,32.1802223 112.240704,32.2021793 112.240704,32.2241363 C112.240704,34.717608 114.257946,36.7391548 116.746108,36.7391548 L138.989493,36.7391548 L138.989493,144.915221 L138.989193,144.915221 Z" id="Shape"></path>
                <path d="M19.3157561,54.9120182 C19.3157561,53.9575781 20.2015174,53.0645313 22.3706073,53.0645313 C24.8754606,53.0645313 25.4560635,54.2345964 26.5554653,54.2345964 C27.8997068,54.2345964 28.4497048,52.5410417 28.4497048,51.7096875 C28.4497048,49.3081641 23.9894022,49 22.3706073,49 C18.5518205,49 14.549998,50.7549479 14.549998,55.3735156 C14.549998,62.5783854 24.2339448,61.9318099 24.2339448,65.6573307 C24.2339448,67.1355599 22.6760628,67.6895964 21.2706113,67.6895964 C18.4294006,67.6895964 17.5130343,65.4108594 16.0772751,65.4108594 C14.9163662,65.4108594 14,66.9504818 14,67.9971615 C14,70.0294271 17.3603066,72 21.3624262,72 C25.7918268,72 29,69.5981771 29,65.164388 C29,57.4060807 19.3157561,57.9906641 19.3157561,54.9120182 Z" id="Shape"></path>
                <path d="M44.9016122,49 C44.1268645,49 43.5073075,49.2498152 43.3213801,49.9048593 L39.0152177,65.9142823 L34.6777158,49.9048593 C34.4920898,49.2492082 33.8722314,49 33.0977851,49 C31.7655567,49 30,49.8426332 30,50.9973077 C30,51.0907987 30.0310381,51.2158581 30.0617749,51.3406139 L35.8553563,70.3772634 C36.1958716,71.4697118 37.5901763,72 39.0155191,72 C40.4408618,72 41.8348651,71.4697118 42.1756818,70.3772634 L47.9379238,51.3406139 C47.9692632,51.2158581 48,51.0907987 48,50.9973077 C47.9996987,49.8426332 46.2335392,49 44.9016122,49 Z" id="Shape"></path>
                <path d="M63.5642123,59.8291894 L58.43139,59.8291894 C57.5150056,59.8291894 56.9956023,60.7965529 56.9956023,61.7016919 C56.9956023,62.6690553 57.5147085,63.5741943 58.43139,63.5741943 L60.2338504,63.5741943 L60.2338504,64.6350463 C60.2338504,66.7570539 59.1950437,67.7556814 57.4844001,67.7556814 C55.7737565,67.7556814 54.7652582,66.7570539 54.7652582,64.6350463 L54.7652582,56.3649537 C54.7652582,54.2429461 55.7734593,53.2443186 57.5147085,53.2443186 C60.1114281,53.2443186 60.2032448,54.9295405 60.2338504,56.0532241 C60.2647531,57.1766041 61.3338682,57.5199013 62.6169252,57.5199013 C64.2360492,57.5199013 65,57.0831156 65,55.2103096 C65,51.2470636 61.7005408,49 57.3319665,49 C53.3297676,49 50,50.997255 50,56.3649537 L50,64.6350463 C50,70.002745 53.2688536,72 57.4844001,72 C61.7002437,72 64.9994057,70.002745 64.9994057,64.6350463 L64.9994057,61.3580912 C64.9997029,60.5470478 64.4805967,59.8291894 63.5642123,59.8291894 Z" id="Shape"></path>
            </g>
        </g>
    </g>
</svg>