<?xml version="1.0" encoding="UTF-8"?>
<svg width="242px" height="192px" viewBox="0 0 242 192" version="1.1" xmlns="http://www.w3.org/2000/svg" xmlns:xlink="http://www.w3.org/1999/xlink">
    <!-- Generator: Sketch 50.2 (55047) - http://www.bohemiancoding.com/sketch -->
    <title>flaticon1527677748-svg</title>
    <desc>Created with Sketch.</desc>
    <defs></defs>
    <g id="Page-1" stroke="none" stroke-width="1" fill="none" fill-rule="evenodd">
        <g id="Desktop-HD" transform="translate(-816.000000, -172.000000)" fill="#000000" fill-rule="nonzero">
            <g id="flaticon1527677748-svg" transform="translate(816.000000, 172.000000)">
                <path d="M152.076769,92.9652546 L106.384462,63.6523625 C105.105077,62.835789 103.485077,62.7813508 102.151692,63.5141731 C100.826615,64.251183 100,65.6582018 100,67.1866597 L100,125.812444 C100,127.340902 100.826615,128.747921 102.155846,129.484931 C102.778923,129.82831 103.464308,130 104.153846,130 C104.930615,130 105.707385,129.77806 106.384462,129.346741 L152.076769,100.033849 C153.273077,99.2633388 154,97.931696 154,96.4995519 C154,95.0674077 153.273077,93.7357649 152.076769,92.9652546 Z M108.307692,118.186904 L108.307692,74.8121993 L142.107538,96.4995519 L108.307692,118.186904 Z" id="Shape"></path>
                <path d="M237.827586,0 L196.103448,0 L45.8965517,0 L4.17241379,0 C1.86924138,0 0,1.86573913 0,4.17391304 L0,50.0869565 L0,96 L0,141.913043 L0,187.826087 C0,190.134261 1.86924138,192 4.17241379,192 L45.8965517,192 L196.103448,192 L237.827586,192 C240.130759,192 242,190.134261 242,187.826087 L242,141.913043 L242,96 L242,50.0869565 L242,4.17391304 C242,1.86573913 240.130759,0 237.827586,0 Z M41.7241379,91.826087 L8.34482759,91.826087 L8.34482759,54.2608696 L41.7241379,54.2608696 L41.7241379,91.826087 Z M8.34482759,100.173913 L41.7241379,100.173913 L41.7241379,137.73913 L8.34482759,137.73913 L8.34482759,100.173913 Z M50.0689655,141.913043 L50.0689655,96 L50.0689655,50.0869565 L50.0689655,8.34782609 L191.931034,8.34782609 L191.931034,50.0869565 L191.931034,96 L191.931034,141.913043 L191.931034,183.652174 L50.0689655,183.652174 L50.0689655,141.913043 Z M233.655172,91.826087 L200.275862,91.826087 L200.275862,54.2608696 L233.655172,54.2608696 L233.655172,91.826087 Z M200.275862,100.173913 L233.655172,100.173913 L233.655172,137.73913 L200.275862,137.73913 L200.275862,100.173913 Z M233.655172,8.34782609 L233.655172,45.9130435 L200.275862,45.9130435 L200.275862,8.34782609 L233.655172,8.34782609 Z M8.34482759,8.34782609 L41.7241379,8.34782609 L41.7241379,45.9130435 L8.34482759,45.9130435 L8.34482759,8.34782609 Z M8.34482759,183.652174 L8.34482759,146.086957 L41.7241379,146.086957 L41.7241379,183.652174 L8.34482759,183.652174 Z M233.655172,183.652174 L200.275862,183.652174 L200.275862,146.086957 L233.655172,146.086957 L233.655172,183.652174 Z" id="Shape"></path>
            </g>
        </g>
    </g>
</svg>